<svg width="44" height="44" viewBox="0 0 44 44" fill="none" xmlns="http://www.w3.org/2000/svg">
<rect width="44" height="44" rx="12" fill="#0957C3" fill-opacity="0.08"/>
<path d="M12.7996 10H32.3996C33.5041 10 34.3996 10.8954 34.3996 12V32C34.3996 33.1046 33.5041 34 32.3996 34H14.7996C13.695 34 12.7996 33.1046 12.7996 32V10Z" fill="white" stroke="#0957C3" stroke-width="2" stroke-linecap="round" stroke-linejoin="round"/>
<path d="M7.99956 13.6407C7.99956 10.2807 10.3996 9.84069 11.5996 10.0407L12.7996 10.0407L12.7996 17.2001L11.5996 17.2407C10.3996 17.4407 7.99956 17.0007 7.99956 13.6407Z" fill="#C1D5F0"/>
<path d="M11.5996 10.0407L11.4352 11.0271C11.4895 11.0361 11.5445 11.0407 11.5996 11.0407L11.5996 10.0407ZM11.5996 17.2407L11.5658 16.2413C11.522 16.2427 11.4784 16.2471 11.4352 16.2543L11.5996 17.2407ZM12.7996 17.2001L12.8334 18.1995C13.3722 18.1813 13.7996 17.7392 13.7996 17.2001L12.7996 17.2001ZM12.7996 10.0407L13.7996 10.0407C13.7996 9.4884 13.3518 9.04069 12.7996 9.04069L12.7996 10.0407ZM11.764 9.05429C10.9847 8.92442 9.80738 8.99186 8.79104 9.6762C7.71253 10.4024 6.99956 11.6967 6.99956 13.6407L8.99956 13.6407C8.99956 12.2247 9.48659 11.619 9.90808 11.3352C10.3917 11.0095 11.0144 10.957 11.4352 11.0271L11.764 9.05429ZM6.99956 13.6407C6.99956 15.5847 7.71253 16.879 8.79104 17.6052C9.80737 18.2895 10.9847 18.357 11.764 18.2271L11.4352 16.2543C11.0144 16.3244 10.3917 16.2719 9.90808 15.9462C9.48659 15.6624 8.99956 15.0567 8.99956 13.6407L6.99956 13.6407ZM11.6334 18.2401L12.8334 18.1995L12.7658 16.2007L11.5658 16.2413L11.6334 18.2401ZM13.7996 17.2001L13.7996 10.0407L11.7996 10.0407L11.7996 17.2001L13.7996 17.2001ZM12.7996 9.04069L11.5996 9.04069L11.5996 11.0407L12.7996 11.0407L12.7996 9.04069Z" fill="#0957C3"/>
<path d="M17.5994 13.8003C17.0471 13.8003 16.5994 14.248 16.5994 14.8003C16.5994 15.3526 17.0471 15.8003 17.5994 15.8003V13.8003ZM29.5994 15.8003C30.1516 15.8003 30.5994 15.3526 30.5994 14.8003C30.5994 14.248 30.1516 13.8003 29.5994 13.8003V15.8003ZM17.5994 15.8003L29.5994 15.8003V13.8003L17.5994 13.8003V15.8003Z" fill="#0957C3"/>
<path d="M17.5994 18.6001C17.0471 18.6001 16.5994 19.0478 16.5994 19.6001C16.5994 20.1524 17.0471 20.6001 17.5994 20.6001V18.6001ZM29.5994 20.6001C30.1516 20.6001 30.5994 20.1524 30.5994 19.6001C30.5994 19.0478 30.1516 18.6001 29.5994 18.6001V20.6001ZM17.5994 20.6001L29.5994 20.6001V18.6001L17.5994 18.6001V20.6001Z" fill="#0957C3"/>
<path d="M17.5994 23.3999C17.0471 23.3999 16.5994 23.8476 16.5994 24.3999C16.5994 24.9522 17.0471 25.3999 17.5994 25.3999V23.3999ZM29.5994 25.3999C30.1516 25.3999 30.5994 24.9522 30.5994 24.3999C30.5994 23.8476 30.1516 23.3999 29.5994 23.3999V25.3999ZM17.5994 25.3999L29.5994 25.3999V23.3999L17.5994 23.3999V25.3999Z" fill="#0957C3"/>
<path d="M17.5994 28.2002C17.0471 28.2002 16.5994 28.6479 16.5994 29.2002C16.5994 29.7525 17.0471 30.2002 17.5994 30.2002V28.2002ZM29.5994 30.2002C30.1516 30.2002 30.5994 29.7525 30.5994 29.2002C30.5994 28.6479 30.1516 28.2002 29.5994 28.2002V30.2002ZM17.5994 30.2002L29.5994 30.2002V28.2002L17.5994 28.2002V30.2002Z" fill="#0957C3"/>
</svg>
